<svg width="98" height="98" viewBox="0 0 98 98" fill="none" xmlns="http://www.w3.org/2000/svg">
<g id="Group 75">
<g id="Group 74">
<path id="Vector" d="M54.0691 39.7073C54.0691 39.873 54.0609 40.0387 54.0449 40.2037C54.0284 40.3694 54.0041 40.5331 53.9717 40.6956C53.9392 40.8588 53.899 41.0193 53.8506 41.1787C53.8028 41.3373 53.7467 41.4934 53.683 41.647C53.6199 41.7999 53.5485 41.9503 53.4708 42.0963C53.3924 42.2428 53.307 42.3849 53.2146 42.5232C53.1229 42.6615 53.0241 42.7947 52.9183 42.9227C52.8132 43.0508 52.7017 43.1738 52.5844 43.2911C52.4672 43.4089 52.3442 43.5198 52.2161 43.6256C52.0874 43.7307 51.9542 43.8295 51.8166 43.9219C51.6783 44.0137 51.5362 44.0991 51.3896 44.1774C51.2431 44.2558 51.0933 44.3265 50.9397 44.3903C50.7868 44.4534 50.6307 44.5094 50.4714 44.5579C50.3127 44.6056 50.1521 44.6464 49.989 44.6783C49.8259 44.7108 49.6621 44.735 49.4971 44.7516C49.332 44.7681 49.1663 44.7758 49 44.7758C48.8343 44.7758 48.6687 44.7681 48.503 44.7516C48.338 44.735 48.1742 44.7108 48.0111 44.6783C47.8486 44.6464 47.6873 44.6056 47.5287 44.5579C47.37 44.5094 47.2139 44.4534 47.0603 44.3903C46.9067 44.3265 46.757 44.2558 46.6104 44.1774C46.4645 44.0991 46.3218 44.0137 46.1841 43.9219C46.0459 43.8295 45.9127 43.7307 45.7846 43.6256C45.6559 43.5198 45.5329 43.4089 45.4156 43.2911C45.2984 43.1738 45.1869 43.0508 45.0817 42.9227C44.9766 42.7947 44.8778 42.6615 44.7854 42.5232C44.693 42.3849 44.6076 42.2428 44.5299 42.0963C44.4515 41.9503 44.3808 41.7999 44.3171 41.647C44.2533 41.4934 44.1979 41.3373 44.1495 41.1787C44.101 41.0193 44.0609 40.8588 44.0284 40.6956C43.9959 40.5331 43.9717 40.3694 43.9558 40.2037C43.9392 40.0387 43.9309 39.873 43.9309 39.7073C43.9309 39.541 43.9392 39.3753 43.9558 39.2103C43.9717 39.0452 43.9959 38.8808 44.0284 38.7183C44.0609 38.5552 44.101 38.3946 44.1495 38.2353C44.1979 38.0766 44.2533 37.9205 44.3171 37.767C44.3808 37.614 44.4515 37.4636 44.5299 37.3177C44.6076 37.1712 44.693 37.029 44.7854 36.8908C44.8778 36.7525 44.9766 36.6193 45.0817 36.4912C45.1869 36.3631 45.2984 36.2402 45.4156 36.1229C45.5329 36.005 45.6559 35.8942 45.7846 35.7884C45.9127 35.6832 46.0459 35.5845 46.1841 35.4921C46.3218 35.4003 46.4645 35.3149 46.6104 35.2365C46.757 35.1582 46.9067 35.0874 47.0603 35.0237C47.2139 34.9606 47.37 34.9045 47.5287 34.8561C47.6873 34.8083 47.8486 34.7675 48.0111 34.7357C48.1742 34.7032 48.338 34.679 48.503 34.6624C48.6687 34.6465 48.8343 34.6382 49 34.6382C49.1663 34.6382 49.332 34.6465 49.4971 34.6624C49.6621 34.679 49.8259 34.7032 49.989 34.7357C50.1521 34.7675 50.3127 34.8083 50.4714 34.8561C50.6307 34.9045 50.7868 34.9606 50.9397 35.0237C51.0933 35.0874 51.2431 35.1582 51.3896 35.2365C51.5362 35.3149 51.6783 35.4003 51.8166 35.4921C51.9542 35.5845 52.0874 35.6832 52.2161 35.7884C52.3442 35.8942 52.4672 36.005 52.5844 36.1229C52.7017 36.2402 52.8132 36.3631 52.9183 36.4912C53.0241 36.6193 53.1229 36.7525 53.2146 36.8908C53.307 37.029 53.3924 37.1712 53.4708 37.3177C53.5485 37.4636 53.6199 37.614 53.683 37.767C53.7467 37.9205 53.8028 38.0766 53.8506 38.2353C53.899 38.3946 53.9392 38.5552 53.9717 38.7183C54.0041 38.8808 54.0284 39.0452 54.0449 39.2103C54.0609 39.3753 54.0691 39.541 54.0691 39.7073Z" fill="#2E58FF"/>
<g id="Group 73">
<g id="Group">
<path id="Vector_2" d="M91.1097 36.483C90.238 33.5397 89.0668 30.7263 87.6304 28.0755C86.9244 26.773 87.1761 25.1627 88.2237 24.1151L90.8191 21.5197L76.4822 7.18279L73.8868 9.77821C72.8392 10.8258 71.2277 11.0775 69.9264 10.3715C67.2769 8.93516 64.4622 7.76394 61.5189 6.89222C60.0979 6.46974 59.1382 5.15196 59.1382 3.67169V0H38.8624V3.67169C38.8624 5.15196 37.9027 6.47165 36.483 6.89222C33.5397 7.76394 30.7263 8.93516 28.0755 10.3715C26.773 11.0775 25.1627 10.8258 24.1151 9.77821L21.5197 7.18279L7.18279 21.5197L9.77821 24.1151C10.8258 25.1627 11.0775 26.7743 10.3715 28.0755C8.93516 30.725 7.76394 33.5397 6.89222 36.483C6.47165 37.9027 5.15196 38.8624 3.67169 38.8624H0V59.1382H3.67169C5.15196 59.1382 6.47165 60.0979 6.89222 61.517C7.76394 64.4603 8.93516 67.2737 10.3715 69.9233C11.0775 71.2257 10.8258 72.836 9.77821 73.8836L7.18279 76.479L21.5197 90.8159L24.1151 88.2205C25.1627 87.1729 26.7743 86.9212 28.0755 87.6273C30.725 89.0636 33.5397 90.2348 36.483 91.1065C37.9027 91.529 38.8624 92.8487 38.8624 94.3283V98H59.1382V94.3283C59.1382 92.8487 60.0979 91.529 61.517 91.1078C64.4603 90.2361 67.2737 89.0655 69.9245 87.6292C71.2277 86.9225 72.8379 87.1748 73.8855 88.2224L76.4809 90.8172L90.8172 76.4809L88.2218 73.8855C87.1742 72.8379 86.9225 71.2257 87.6292 69.9252C89.0655 67.2756 90.2361 64.4603 91.1078 61.5189C91.529 60.0979 92.848 59.1382 94.3283 59.1382H98V38.8624H94.3283C92.848 38.8624 91.5303 37.9027 91.1097 36.483ZM49 84.4832C29.4034 84.4832 13.5174 68.5966 13.5174 49C13.5174 29.4034 29.4034 13.5174 49 13.5174C68.5966 13.5174 84.4826 29.4034 84.4826 49C84.4826 68.5966 68.5966 84.4832 49 84.4832Z" fill="#2E58FF"/>
</g>
<g id="Group 72">
<path id="Vector_3" d="M69.1102 54.4209C67.9409 54.8835 66.6925 55.3602 65.3206 55.8604C52.0485 60.6759 38.0021 63.4841 23.5709 64.2087L23.7417 67.5847C38.5087 66.8429 52.8864 63.9652 66.4778 59.035C68.081 58.4488 69.5326 57.8944 70.8746 57.3553L72.9558 60.8275L76.9805 50.962L66.8735 50.6899L69.1102 54.4209Z" fill="#2E58FF"/>
<path id="Vector_4" d="M40.5516 53.2241V60.6331C46.2866 59.6569 51.9248 58.327 57.4482 56.6645V53.2241L63.3451 44.2998C65.0178 41.287 65.8966 37.8989 65.8966 34.4521V29.5691H60.8274V31.259C60.8274 35.3576 59.5855 39.3537 57.2762 42.7233C56.9563 43.1891 54.784 44.4196 54.784 44.4196C54.3137 44.6541 53.7969 44.7758 53.2731 44.7758H44.7286C44.2048 44.7758 43.6861 44.6541 43.2177 44.4196C43.2177 44.4196 41.0448 43.1891 40.7256 42.7233C38.4143 39.3537 37.1724 35.3576 37.1724 31.259V29.5691H32.1033V34.4521C32.1033 37.8976 32.982 41.287 34.6547 44.2998L40.5516 53.2241Z" fill="#2E58FF"/>
<path id="Vector_5" d="M44.823 31.7727L49 29.5775L53.177 31.7727L52.3792 27.121L55.7584 23.8278L51.0882 23.1485L49 18.9174L46.9118 23.1485L42.2416 23.8278L45.6208 27.121L44.823 31.7727Z" fill="#2E58FF"/>
<path id="Vector_6" d="M28.7241 76.0936C31.2756 78.0473 34.1144 79.6302 37.1724 80.7778V70.9658H28.7241V76.0936Z" fill="#A9CAFF"/>
<path id="Vector_7" d="M43.9309 82.5142C45.4908 82.7423 47.0737 82.8997 48.6961 82.8997C50.5294 82.8997 52.3155 82.7105 54.0691 82.4218V69.2759H43.9309V82.5142Z" fill="#A9CAFF"/>
</g>
</g>
</g>
<path id="Vector_8" d="M60.8275 80.5559C64.6024 79.054 68.0237 76.8708 70.9658 74.1639V64.2073H60.8275V80.5559Z" fill="#A9CAFF"/>
</g>
</svg>
